<svg width="18" height="16" viewBox="0 0 18 16" fill="none" xmlns="http://www.w3.org/2000/svg">
<path fill-rule="evenodd" clip-rule="evenodd" d="M2.25 2C2.25 2.62132 1.74632 3.125 1.125 3.125C0.50368 3.125 0 2.62132 0 2C0 1.37868 0.50368 0.875 1.125 0.875C1.74632 0.875 2.25 1.37868 2.25 2ZM5.25 1.25C4.83579 1.25 4.5 1.58579 4.5 2C4.5 2.41421 4.83579 2.75 5.25 2.75H17.25C17.6642 2.75 18 2.41421 18 2C18 1.58579 17.6642 1.25 17.25 1.25H5.25ZM5.25 7.25C4.83579 7.25 4.5 7.58579 4.5 8C4.5 8.41421 4.83579 8.75 5.25 8.75H17.25C17.6642 8.75 18 8.41421 18 8C18 7.58579 17.6642 7.25 17.25 7.25H5.25ZM4.5 14C4.5 13.5858 4.83579 13.25 5.25 13.25H17.25C17.6642 13.25 18 13.5858 18 14C18 14.4142 17.6642 14.75 17.25 14.75H5.25C4.83579 14.75 4.5 14.4142 4.5 14ZM1.125 9.125C1.74632 9.125 2.25 8.62132 2.25 8C2.25 7.37868 1.74632 6.875 1.125 6.875C0.50368 6.875 0 7.37868 0 8C0 8.62132 0.50368 9.125 1.125 9.125ZM2.25 14C2.25 14.6213 1.74632 15.125 1.125 15.125C0.50368 15.125 0 14.6213 0 14C0 13.3787 0.50368 12.875 1.125 12.875C1.74632 12.875 2.25 13.3787 2.25 14Z" fill="white"/>
</svg>
