<svg width="20" height="18" viewBox="0 0 20 18" fill="none" xmlns="http://www.w3.org/2000/svg">
<path d="M19.4593 1.6594C19.3706 1.58943 19.2671 1.54044 19.1567 1.51609C19.0463 1.49173 18.9318 1.49265 18.8219 1.51877L13.0843 2.95315L7.33748 0.0750245H7.3281L7.2531 0.0468996H7.23435L7.16873 0.0281495H7.1406L7.07498 0.00939941H6.82185L0.82185 1.5094C0.656696 1.54976 0.510154 1.64503 0.406249 1.77959C0.302344 1.91416 0.247241 2.08003 0.249975 2.25002V15.75C0.248879 15.8643 0.2746 15.9773 0.325072 16.0799C0.375544 16.1825 0.449362 16.2718 0.5406 16.3407C0.671426 16.444 0.833278 16.5001 0.999975 16.5L1.1781 16.4813L6.9156 15.0469L12.6625 17.925H12.6719L12.7375 17.9531H12.7469L12.8219 17.9813H13.1781L19.1781 16.4813C19.3417 16.4413 19.487 16.3474 19.5908 16.2148C19.6945 16.0821 19.7506 15.9184 19.75 15.75V2.25002C19.7511 2.13571 19.7253 2.02273 19.6749 1.92016C19.6244 1.81759 19.5506 1.72828 19.4593 1.6594V1.6594ZM12.25 16.0406L7.74998 13.7906V1.9594L12.25 4.2094V16.0406Z" fill="white"/>
</svg>
